<svg 
    width="248" 
    height="433"
    xmlns="http://www.w3.org/2000/svg"
    id="zab"
    >

    <g display="inline">
      <title>Korona</title>
        <path 
        stroke="#000000" 
        id="korona" 
        d="m54.47699,1.42085c-42.92732,-0.04271 -53.81933,49.41981 -53.52033,75.30435c0.29899,25.88453 4.31409,85.89735 52.96505,85.25664c48.65096,-0.6407 30.58304,-15.76137 68.85456,-15.07795c38.27152,0.68342 20.63074,15.63323 67.53044,15.03524c46.8997,-0.59799 56.25401,-55.99773 56.72386,-84.10338c0.46985,-28.10564 -7.64576,-76.58575 -54.11832,-76.58575c-46.47256,0 -35.32427,15.41966 -68.81185,14.73624c-33.48758,-0.68342 -26.69609,-14.52267 -69.62341,-14.56538l0,-0.00001z" 
        fill="#ffffff"
        onCilck={onCilck}
        />
    </g>

    <g display="inline">
       <title>Korzen</title>
        <path 
        id="korzen" 
        d="m43.1798,172.90622c11.8177,-15.49999 155.68227,-12.15623 160.74997,-1.92184c5.0677,10.23439 13.78126,88.03124 0.42188,132.89062c-13.35938,44.85938 -14.90625,124.87501 -29.53125,127.54688c-14.625,2.67187 -3.23438,-133.17187 -48.23438,-135.84375c-45,-2.67188 -39.9375,139.21875 -51.75,135.42187c-11.8125,-3.79688 -29.38541,-102.96874 -32.90624,-118.125c-3.52083,-15.15626 -10.56768,-124.46879 1.25002,-139.96878z" 
        stroke="#000000" 
        onCilck={onCilck}
        fill="#ffffff"/>
    </g>
</svg>